<svg width="92" height="67" viewBox="0 0 92 67" fill="none" xmlns="http://www.w3.org/2000/svg">
<path d="M33.8801 18.761C33.5632 18.8474 33.2418 18.9158 32.9172 18.9661C32.5887 19.0231 32.2571 19.0605 31.9241 19.0781C31.7441 19.0901 31.6761 19.0431 31.6581 18.9321C31.652 18.8991 31.6493 18.8656 31.6501 18.8321L31.7391 11.8841C31.7391 11.8601 31.7391 11.842 31.7391 11.826C31.7301 11.77 31.6942 11.7591 31.6182 11.7711L31.4832 11.7931C31.3832 11.8101 31.3671 11.8291 31.3171 11.9521L28.9451 17.7721C28.8061 18.0901 28.7382 18.1511 28.3842 18.2081L26.5292 18.5081C26.1752 18.5661 26.1081 18.5271 26.0101 18.2461L24.2852 13.088C24.2502 12.978 24.2311 12.965 24.1301 12.981L24.0121 13.0001C23.992 12.9997 23.9721 13.0036 23.9535 13.0114C23.9349 13.0191 23.9182 13.0307 23.9043 13.0452C23.8904 13.0598 23.8796 13.077 23.8727 13.0959C23.8658 13.1148 23.8629 13.135 23.8641 13.1551L23.1182 20.2101C23.0962 20.3941 23.0412 20.4851 22.8182 20.5461C22.4962 20.6343 22.1693 20.7038 21.8392 20.7541C21.5325 20.8061 21.2229 20.8395 20.9122 20.8541C20.7232 20.8591 20.6552 20.8131 20.6392 20.7171C20.6353 20.6792 20.6353 20.641 20.6392 20.6031L21.8461 11.425C21.8961 11.087 22.0061 11.025 22.3091 10.972L25.4371 10.4661C25.7911 10.4081 25.8842 10.4431 25.9722 10.7251L27.5032 15.602C27.5272 15.702 27.5632 15.707 27.6652 15.692L27.7651 15.675C27.8651 15.658 27.8972 15.6361 27.9412 15.5311L30.0851 10.0601C30.2161 9.74306 30.3101 9.67906 30.6641 9.62106L33.6232 9.14307C33.8852 9.10107 34.0081 9.11304 34.0411 9.32104C34.0492 9.36392 34.0536 9.40742 34.0541 9.45105L34.1771 18.4131C34.1801 18.5891 34.1351 18.686 33.8801 18.761Z" fill="#14226B"/>
<path d="M46.6622 16.424C46.6892 16.592 46.5622 16.695 46.3772 16.75C46.023 16.8495 45.663 16.927 45.2992 16.982C44.9591 17.0413 44.6153 17.0774 44.2702 17.09C44.0622 17.09 44.0262 17.031 43.9592 16.828L43.4042 15.215C43.3462 15.076 43.2762 15.064 43.1242 15.096C42.4492 15.255 41.6723 15.422 40.9053 15.545C40.1383 15.668 39.3802 15.75 38.7052 15.811C38.6395 15.8079 38.5746 15.8272 38.5212 15.8657C38.4678 15.9042 38.429 15.9596 38.4112 16.023L37.6512 17.848C37.5512 18.078 37.5013 18.148 37.3033 18.216C36.9751 18.3113 36.6411 18.3848 36.3033 18.436C35.9662 18.4959 35.6254 18.532 35.2832 18.544C35.1352 18.544 35.0262 18.511 35.0112 18.414C35.0068 18.3443 35.0228 18.2748 35.0572 18.214L39.4393 8.50003C39.4774 8.3884 39.5494 8.29144 39.6454 8.22277C39.7413 8.15411 39.8563 8.11713 39.9742 8.117L42.8403 7.65402C43.1613 7.60302 43.2652 7.659 43.3512 7.867L46.6412 16.343C46.6522 16.3688 46.6593 16.3961 46.6622 16.424V16.424ZM42.5442 13.487C42.7112 13.443 42.7802 13.342 42.7242 13.203L41.5112 9.76303C41.4762 9.66303 41.4392 9.64402 41.3382 9.66302L41.1872 9.68701C41.1409 9.69002 41.0968 9.70746 41.0609 9.73687C41.025 9.76629 40.9992 9.8062 40.9872 9.85101L39.3323 13.751C39.316 13.7944 39.3089 13.8407 39.3113 13.887C39.3233 13.959 39.3793 13.987 39.4913 13.981C39.9183 13.953 40.3912 13.901 41.0102 13.801C41.6292 13.701 42.1082 13.598 42.5392 13.486L42.5442 13.487Z" fill="#14226B"/>
<path d="M56.298 5.76903C56.449 5.79503 56.5331 5.83102 56.5521 6.00002C56.595 6.44963 56.5505 6.90331 56.421 7.33602C56.339 7.57202 56.28 7.58103 56.071 7.57503C54.9289 7.50105 53.7822 7.54831 52.65 7.71602C51.47 7.90602 50.4421 8.23704 50.3931 9.05904C50.3281 9.94204 51.4341 9.82903 52.7631 9.80403C55.3251 9.76003 56.8951 9.94303 56.7371 12.23C56.5841 14.764 54.1471 15.692 51.7181 16.085C50.3595 16.3018 48.9812 16.3688 47.608 16.285C47.408 16.252 47.385 16.19 47.356 16.014C47.3106 15.537 47.353 15.0558 47.481 14.594C47.544 14.394 47.617 14.359 47.826 14.375C49.1898 14.4862 50.5618 14.444 51.9161 14.249C52.6491 14.13 54.049 13.855 54.116 12.858C54.184 11.941 53.275 11.99 51.816 12.027C49.36 12.087 47.636 11.806 47.798 9.65004C47.951 7.16604 50.1771 6.32004 52.6461 5.92104C53.8534 5.72926 55.0789 5.67824 56.298 5.76903Z" fill="#14226B"/>
<path d="M66.8102 4.07005C66.9602 4.09605 67.0452 4.13204 67.0632 4.30104C67.1071 4.75125 67.063 5.20571 66.9332 5.63905C66.8502 5.87405 66.7912 5.88305 66.5832 5.87605C65.4411 5.80207 64.2943 5.84933 63.1622 6.01704C61.9812 6.20704 60.9532 6.53803 60.9042 7.36103C60.8402 8.24303 61.9462 8.13005 63.2742 8.10405C65.8372 8.06005 67.4062 8.24304 67.2482 10.53C67.0952 13.064 64.6592 13.9921 62.2302 14.3851C60.8713 14.6017 59.4927 14.6688 58.1192 14.585C57.9192 14.552 57.8962 14.49 57.8672 14.314C57.8222 13.837 57.8649 13.3557 57.9932 12.8941C58.0562 12.6941 58.1282 12.6591 58.3382 12.6741C59.7013 12.7852 61.0725 12.743 62.4262 12.548C63.1602 12.429 64.5612 12.1541 64.6262 11.1571C64.6952 10.2401 63.7852 10.2891 62.3262 10.3261C59.8692 10.3861 58.1472 10.105 58.3082 7.94905C58.4602 5.46505 60.6852 4.61904 63.1562 4.22004C64.3643 4.02871 65.5905 3.97838 66.8102 4.07005Z" fill="#14226B"/>
<path d="M79.0872 11.184C79.1142 11.352 78.9922 11.4551 78.8022 11.5101C78.4481 11.6098 78.0881 11.6869 77.7242 11.741C77.3841 11.8006 77.0403 11.837 76.6952 11.8501C76.4872 11.8501 76.4512 11.791 76.3842 11.588L75.8292 9.97404C75.7712 9.83504 75.7012 9.82306 75.5492 9.85506C74.8742 10.0131 74.0972 10.18 73.3302 10.304C72.5632 10.428 71.8052 10.509 71.1302 10.568C71.0645 10.5651 70.9997 10.5844 70.9464 10.6229C70.893 10.6614 70.8542 10.7168 70.8362 10.78L70.0763 12.607C69.9763 12.837 69.9262 12.9071 69.7282 12.9751C69.4 13.0697 69.0659 13.1432 68.7282 13.1951C68.3912 13.255 68.0503 13.2911 67.7082 13.3031C67.5602 13.3031 67.4512 13.27 67.4362 13.173C67.4319 13.1033 67.4479 13.0339 67.4823 12.973L71.8642 3.25703C71.9027 3.14565 71.9749 3.04897 72.0708 2.98036C72.1666 2.91175 72.2814 2.87461 72.3993 2.87404L75.2652 2.41203C75.5862 2.35903 75.6902 2.41705 75.7762 2.62505L79.0662 11.101C79.0776 11.1274 79.0847 11.1554 79.0872 11.184V11.184ZM74.9702 8.24706C75.1362 8.20306 75.2052 8.10205 75.1482 7.96205L73.9352 4.52306C73.9002 4.42306 73.8632 4.40205 73.7622 4.42305L73.6112 4.44704C73.5652 4.45041 73.5213 4.46787 73.4856 4.49702C73.4498 4.52618 73.4238 4.56563 73.4112 4.61003L71.7583 8.51006C71.7419 8.5531 71.7347 8.59906 71.7372 8.64503C71.7482 8.71703 71.8053 8.74504 71.9173 8.74004C72.3443 8.71204 72.8172 8.65904 73.4372 8.56004C74.0572 8.46104 74.5382 8.35806 74.9712 8.24706H74.9702Z" fill="#14226B"/>
<path d="M89.7751 2.42899V-0.00201416C86.1151 0.152986 81.683 1.64599 81.675 5.99799V20.898L81.6841 31.639L89.7761 30.259V2.517C89.7751 2.492 89.7751 2.46099 89.7751 2.42899Z" fill="#184B98"/>
<path d="M85.9199 34.363C84.4616 34.6375 83.1445 35.4117 82.1954 36.5524C81.2464 37.6932 80.7246 39.1291 80.72 40.613C80.706 47.94 91.0799 45.699 91.1339 38.798C91.1805 38.1335 91.0702 37.4674 90.812 36.8534C90.5538 36.2394 90.155 35.6946 89.6476 35.263C89.1402 34.8314 88.5385 34.5251 87.891 34.3688C87.2435 34.2125 86.5683 34.2105 85.9199 34.363V34.363Z" fill="#184B98"/>
<path d="M17.98 18.906L17.993 12.597C13.312 9.56101 4.97703 11.936 4.96503 17.486L4.94702 28.171L0 28.995L0.0130005 35.909L4.94098 35.09L4.93103 57.941C4.93103 59.52 2.341 60.615 0.0130005 59.141L0 65.45C4.681 68.486 13.016 66.111 13.028 60.561L13.046 32.973L13.041 33.715L17.98 32.924V26.003L13.052 26.791L13.062 20.106C13.062 18.67 15.653 17.431 17.98 18.906Z" fill="#184B98"/>
<path d="M48.0329 42.185C48.0269 42.12 48.0229 42.053 48.0219 41.985L48.0329 35.007L48.0498 25.431C48.0588 20.918 43.5498 20.863 39.9218 21.975V30.43C39.931 30.5123 39.9357 30.5951 39.9359 30.678L39.9139 40.461C39.7649 46.703 29.3809 49.245 29.2769 42.312L29.3009 28.691C29.3069 25.579 26.9009 24.291 24.4099 24.691C23.2159 24.882 22.1559 25.067 21.1869 25.319V33.894C21.1869 33.911 21.1869 33.927 21.1869 33.943V42.45H21.1609L21.1529 44.897C21.1319 55.297 31.3908 53.797 31.3908 53.797C33.1749 53.5384 34.8796 52.8881 36.3827 51.893C37.8858 50.8978 39.1501 49.5824 40.0849 48.041C40.6339 50.508 42.3979 51.87 44.8849 51.441C46.0899 51.23 47.1559 50.972 48.0359 50.727L48.0329 42.185Z" fill="#184B98"/>
<path d="M67.882 16.92C66.0979 17.1787 64.3932 17.8289 62.8901 18.824C61.387 19.8192 60.1227 21.1346 59.1879 22.676C58.6389 20.209 56.874 18.848 54.388 19.276C53.3318 19.4598 52.2855 19.6965 51.2529 19.985V31L51.229 40.549L51.221 45.282C51.212 49.793 55.721 49.85 59.346 48.738V40.271C59.338 40.191 59.333 40.112 59.333 40.034L59.356 30.253C59.504 24.011 69.889 21.468 69.992 28.401L69.9669 42.022C69.9579 46.537 74.4739 46.59 78.0999 45.476V37.071C78.0864 36.9716 78.0801 36.8713 78.0809 36.771L78.0999 30.634L78.114 25.822C78.139 15.42 67.882 16.92 67.882 16.92Z" fill="#184B98"/>
</svg>
