<svg width="151" height="111" viewBox="0 0 151 111" fill="none" xmlns="http://www.w3.org/2000/svg">
<g clip-path="url(#clip0_1614_4)">
<path d="M55.8541 30.9278C55.3319 31.0705 54.802 31.1836 54.2671 31.2668C53.7252 31.3607 53.1782 31.4222 52.6291 31.4508C52.3291 31.4698 52.2211 31.3938 52.1911 31.2098C52.1813 31.1567 52.177 31.1028 52.1781 31.0488L52.3241 19.5938C52.3181 19.5538 52.3241 19.5238 52.3241 19.4938C52.3091 19.4008 52.2501 19.3838 52.1241 19.4028L51.9021 19.4388C51.7351 19.4658 51.7111 19.4978 51.6291 19.7008L47.7181 29.2958C47.4891 29.8208 47.3771 29.9198 46.7931 30.0148L43.7351 30.5078C43.1511 30.6078 43.0411 30.5398 42.8801 30.0758L40.0361 21.5758C39.9791 21.3938 39.9471 21.3758 39.7801 21.3998L39.5851 21.4318C39.552 21.4313 39.519 21.4377 39.4884 21.4506C39.4579 21.4635 39.4303 21.4825 39.4075 21.5066C39.3847 21.5306 39.3671 21.5591 39.3558 21.5903C39.3446 21.6215 39.3399 21.6547 39.3421 21.6878L38.1131 33.3178C38.0771 33.6178 37.9861 33.7708 37.6131 33.8718C37.0819 34.0174 36.5426 34.1319 35.9981 34.2148C35.4926 34.3007 34.9823 34.3558 34.4701 34.3798C34.1591 34.3878 34.0471 34.3118 34.0191 34.1538C34.0125 34.0913 34.0125 34.0283 34.0191 33.9658L36.0081 18.8358C36.0911 18.2788 36.2731 18.1688 36.7721 18.0888L41.9291 17.2548C42.5131 17.1548 42.6651 17.2168 42.8121 17.6818L45.3371 25.7208C45.3771 25.8778 45.4371 25.8948 45.6041 25.8688L45.7711 25.8408C45.9381 25.8128 45.9891 25.7768 46.0611 25.6038L49.5951 16.5848C49.8111 16.0618 49.9651 15.9568 50.5491 15.8608L55.4271 15.0738C55.8591 15.0038 56.0621 15.0248 56.1171 15.3678C56.1303 15.4384 56.1373 15.51 56.1381 15.5818L56.3381 30.3568C56.3491 30.6438 56.2711 30.8048 55.8541 30.9278Z" fill="#14226B"/>
<path d="M76.9182 27.0769C76.9622 27.3539 76.7612 27.5239 76.4482 27.6149C75.8643 27.779 75.2708 27.9069 74.6712 27.9979C74.1092 28.0957 73.5412 28.1551 72.9711 28.1759C72.6281 28.1759 72.5712 28.0759 72.4592 27.7439L71.5452 25.0839C71.4452 24.8549 71.3332 24.8339 71.0842 24.8839C69.9712 25.1459 68.6912 25.4209 67.4252 25.6249C66.1592 25.8289 64.9112 25.9639 63.8002 26.0629C63.6918 26.0575 63.5847 26.0891 63.4966 26.1525C63.4085 26.2159 63.3445 26.3074 63.3152 26.4119L62.0621 29.4209C61.8951 29.7999 61.8141 29.9209 61.4891 30.0279C60.9468 30.1849 60.3946 30.3059 59.8362 30.3899C59.2804 30.4887 58.7183 30.5482 58.1542 30.5679C57.9112 30.5679 57.7312 30.5129 57.7062 30.3539C57.7001 30.2408 57.7264 30.1284 57.7822 30.0299L65.0062 14.0149C65.0691 13.8309 65.1879 13.6712 65.3461 13.5581C65.5042 13.4449 65.6938 13.384 65.8882 13.3839L70.6132 12.6199C71.1422 12.5349 71.3132 12.6279 71.4552 12.9709L76.8792 26.9439C76.8987 26.986 76.9119 27.0308 76.9182 27.0769V27.0769ZM70.1292 22.2349C70.4042 22.1629 70.5181 21.9959 70.4291 21.7669L68.4291 16.0959C68.3721 15.9289 68.3102 15.8959 68.1432 15.9249L67.8932 15.9649C67.8175 15.9706 67.7454 15.9998 67.687 16.0484C67.6285 16.0969 67.5866 16.1624 67.5672 16.2359L64.8392 22.6689C64.8127 22.7404 64.8011 22.8167 64.8052 22.8929C64.8242 23.0109 64.9172 23.0639 65.1052 23.0469C65.8052 22.9999 66.5952 22.9159 67.6052 22.7469C68.6152 22.5779 69.4182 22.4169 70.1302 22.2349H70.1292Z" fill="#14226B"/>
<path d="M92.813 9.50996C93.063 9.55196 93.2 9.60997 93.232 9.89097C93.3025 10.6314 93.2291 11.3784 93.016 12.091C92.881 12.48 92.783 12.491 92.438 12.485C90.5551 12.3632 88.6645 12.4413 86.798 12.718C84.853 13.031 83.158 13.577 83.078 14.932C82.97 16.388 84.794 16.2019 86.984 16.1589C91.208 16.0869 93.796 16.3879 93.536 20.1589C93.284 24.3359 89.266 25.866 85.262 26.514C83.0223 26.8727 80.7501 26.9847 78.486 26.848C78.162 26.793 78.118 26.691 78.071 26.402C77.996 25.616 78.0655 24.8229 78.276 24.062C78.376 23.734 78.5 23.675 78.845 23.7C81.093 23.8835 83.3545 23.814 85.587 23.493C86.795 23.293 89.104 22.843 89.21 21.199C89.322 19.688 87.824 19.768 85.422 19.83C81.374 19.93 78.532 19.466 78.798 15.911C79.05 11.816 82.719 10.422 86.791 9.76396C88.7818 9.44642 90.8026 9.36118 92.813 9.50996Z" fill="#14226B"/>
<path d="M110.14 6.71071C110.388 6.75271 110.527 6.81073 110.557 7.09173C110.629 7.832 110.556 8.57913 110.343 9.29171C110.205 9.67871 110.108 9.69171 109.765 9.68371C107.883 9.56203 105.992 9.64013 104.126 9.91671C102.179 10.2297 100.484 10.7757 100.404 12.1327C100.298 13.5867 102.122 13.4007 104.31 13.3577C108.536 13.2857 111.122 13.5867 110.862 17.3577C110.61 21.5347 106.594 23.0647 102.59 23.7127C100.35 24.0714 98.0769 24.1834 95.8121 24.0467C95.4901 23.9917 95.4441 23.8897 95.3971 23.6007C95.3228 22.8146 95.393 22.0216 95.6041 21.2607C95.7041 20.9327 95.8261 20.8737 96.1731 20.8987C98.4204 21.0823 100.681 21.0128 102.913 20.6917C104.123 20.4917 106.432 20.0417 106.536 18.3977C106.65 16.8867 105.15 16.9677 102.75 17.0287C98.7001 17.1287 95.8601 16.6647 96.1261 13.1097C96.3761 9.0147 100.045 7.62073 104.119 6.96273C106.11 6.64597 108.13 6.56139 110.14 6.71071V6.71071Z" fill="#14226B"/>
<path d="M130.381 18.4378C130.425 18.7148 130.224 18.8848 129.911 18.9758C129.327 19.1403 128.733 19.2676 128.133 19.3569C127.571 19.4553 127.003 19.5154 126.433 19.5368C126.09 19.5368 126.033 19.4369 125.921 19.1049L125.007 16.4449C124.907 16.2159 124.795 16.1949 124.546 16.2449C123.433 16.5049 122.153 16.7799 120.887 16.9859C119.621 17.1919 118.373 17.3249 117.262 17.4219C117.154 17.417 117.047 17.4488 116.959 17.5121C116.871 17.5755 116.807 17.6666 116.777 17.7709L115.528 20.7839C115.361 21.1629 115.28 21.2839 114.954 21.3909C114.411 21.5469 113.859 21.6678 113.301 21.7528C112.745 21.8516 112.183 21.9111 111.619 21.9309C111.376 21.9309 111.196 21.8759 111.17 21.7169C111.164 21.6039 111.191 21.4915 111.246 21.3929L118.471 5.37587C118.535 5.19231 118.654 5.03299 118.812 4.91996C118.97 4.80694 119.159 4.74575 119.353 4.74485L124.079 3.98286C124.608 3.89586 124.779 3.99184 124.921 4.33384L130.345 18.3069C130.364 18.3484 130.376 18.3926 130.381 18.4378V18.4378ZM123.595 13.5959C123.868 13.5239 123.982 13.3569 123.889 13.1259L121.889 7.45686C121.832 7.28986 121.77 7.25687 121.603 7.28587L121.353 7.32585C121.277 7.33178 121.205 7.36076 121.147 7.40886C121.088 7.45695 121.046 7.52187 121.025 7.59486L118.3 14.0299C118.273 14.1007 118.262 14.1763 118.266 14.2518C118.285 14.3698 118.378 14.4229 118.566 14.4089C119.266 14.3619 120.056 14.2759 121.072 14.1089C122.088 13.9419 122.882 13.7789 123.595 13.5959V13.5959Z" fill="#14226B"/>
<path d="M148.006 4.00391V0.00390625C141.973 0.259906 134.666 2.7209 134.653 9.9039V34.4659L134.668 52.1739L148.008 49.8989L148.002 4.16492C148 4.10792 148.004 4.05691 148.006 4.00391Z" fill="#184B98"/>
<path d="M141.647 56.65C139.244 57.1033 137.075 58.3795 135.511 60.2593C133.947 62.1391 133.087 64.5049 133.079 66.95C133.055 79.029 150.158 75.334 150.247 63.958C150.29 58.783 146.303 55.837 141.647 56.65Z" fill="#184B98"/>
<path d="M29.641 31.1688L29.662 20.7689C21.944 15.7689 8.204 19.6789 8.185 28.8289L8.15503 46.4439L-0.000976562 47.8029L0.0200195 59.2029L8.14398 57.8529L8.12701 95.5249C8.12701 98.1249 3.85702 99.9329 0.0200195 97.4989L-0.000976562 107.899C7.71702 112.899 21.457 108.989 21.476 99.8389L21.506 54.3588L21.497 55.5819L29.64 54.2819V42.8719L21.516 44.1719L21.533 33.1509C21.534 30.7799 25.804 28.7368 29.641 31.1688Z" fill="#184B98"/>
<path d="M79.1861 69.546C79.1761 69.438 79.1691 69.328 79.1671 69.212L79.1861 57.712L79.2131 41.925C79.2281 34.485 71.7901 34.394 65.8131 36.225V50.164C65.8282 50.2995 65.8359 50.4357 65.8361 50.572L65.8001 66.699C65.5551 76.99 48.4351 81.18 48.2631 69.751L48.3031 47.296C48.3141 42.166 44.3441 40.04 40.2411 40.696C38.2731 41.011 36.5251 41.316 34.9271 41.731V55.867C34.9271 55.895 34.9271 55.922 34.9271 55.948V56.727V69.972H34.8851L34.8721 74.005C34.8381 91.148 51.7511 88.683 51.7511 88.683C54.6922 88.2567 57.5026 87.1848 59.9806 85.5443C62.4587 83.9037 64.543 81.7351 66.0841 79.194C66.9901 83.261 69.8971 85.506 73.9901 84.794C75.9771 84.447 77.7331 84.022 79.1901 83.617L79.1861 69.546Z" fill="#184B98"/>
<path d="M111.908 27.893C108.967 28.3193 106.157 29.3912 103.678 31.0317C101.2 32.6723 99.1161 34.8409 97.575 37.382C96.669 33.315 93.76 31.072 89.667 31.782C87.9259 32.0848 86.2011 32.4746 84.499 32.95V51.109L84.4591 66.851L84.4461 74.651C84.4311 82.087 91.867 82.182 97.846 80.351V66.393C97.833 66.262 97.825 66.131 97.825 66.002L97.8631 49.877C98.1061 39.586 115.228 35.394 115.398 46.823L115.357 69.278C115.342 76.721 122.787 76.809 128.765 74.973V61.116C128.743 60.9539 128.732 60.7905 128.733 60.627L128.765 50.51V50.504L128.788 42.571C128.819 25.428 111.908 27.893 111.908 27.893Z" fill="#184B98"/>
</g>
<defs>
<clipPath id="clip0_1614_4">
<rect width="150.247" height="110.092" fill="white"/>
</clipPath>
</defs>
</svg>
